<?xml version="1.0" encoding="UTF-8"?>
<svg version="1.1" xmlns="http://www.w3.org/2000/svg" width="500" height="200">
<path d="M0 0 C3.62498334 -0.02893932 7.24993713 -0.04677792 10.875 -0.0625 C12.42380859 -0.07506836 12.42380859 -0.07506836 14.00390625 -0.08789062 C14.99003906 -0.09111328 15.97617187 -0.09433594 16.9921875 -0.09765625 C18.35899658 -0.10551147 18.35899658 -0.10551147 19.75341797 -0.11352539 C22 0 22 0 24 1 C24 14.53 24 28.06 24 42 C28.29 42 32.58 42 37 42 C39.67303109 42.27771752 42.34504605 42.58353663 45 43 C45.495 44.98 45.495 44.98 46 47 C46.17095184 46.47017517 46.34190369 45.94035034 46.51803589 45.39447021 C48.29872481 39.87778552 50.0838615 34.36255449 51.87158203 28.84814453 C52.53808827 26.79024571 53.20346145 24.73197955 53.86767578 22.67333984 C54.82286344 19.7135431 55.78212458 16.75509341 56.7421875 13.796875 C57.03809784 12.87694763 57.33400818 11.95702026 57.6388855 11.00921631 C57.91902496 10.1486261 58.19916443 9.28803589 58.48779297 8.40136719 C58.73206024 7.64635925 58.97632751 6.89135132 59.22799683 6.11346436 C60 4 60 4 62 0 C71.9 0 81.8 0 92 0 C96.50267411 11.25668528 96.50267411 11.25668528 97.84692383 15.49389648 C98.15016068 16.44445419 98.45339752 17.3950119 98.76582336 18.37437439 C99.07642197 19.36329178 99.38702057 20.35220917 99.70703125 21.37109375 C100.03668381 22.41523941 100.36633636 23.45938507 100.70597839 24.53517151 C101.39455164 26.72192309 102.08099375 28.90934678 102.76538086 31.09741211 C103.81807978 34.45529831 104.88440216 37.8086707 105.95117188 41.16210938 C106.62062755 43.29400853 107.28927663 45.42616118 107.95703125 47.55859375 C108.27775101 48.56168076 108.59847076 49.56476776 108.9289093 50.59825134 C109.21638535 51.52674393 109.50386139 52.45523651 109.80004883 53.41186523 C110.05667801 54.2277562 110.31330719 55.04364716 110.57771301 55.88426208 C111 58 111 58 110 61 C102.41 61 94.82 61 87 61 C86.01 58.03 85.02 55.06 84 52 C79.05 52 74.1 52 69 52 C68.690625 53.299375 68.38125 54.59875 68.0625 55.9375 C67.125 59.875 67.125 59.875 66 61 C63.94443339 61.09413687 61.88559819 61.11742998 59.82788086 61.11352539 C58.86205833 61.11374443 58.86205833 61.11374443 57.87672424 61.1139679 C55.73939697 61.11326885 53.60215587 61.10547691 51.46484375 61.09765625 C49.98653715 61.09579204 48.50822993 61.09436815 47.02992249 61.09336853 C43.13201198 61.08954359 39.23413851 61.07971352 35.33624268 61.06866455 C31.36153667 61.05844992 27.38682471 61.0538708 23.41210938 61.04882812 C15.608056 61.03809122 7.80403318 61.02101509 0 61 C-1.30248086 58.39503827 -1.12707873 56.48923447 -1.12939453 53.57226562 C-1.13254669 52.43768921 -1.13569885 51.30311279 -1.13894653 50.13415527 C-1.1369223 48.90394653 -1.13489807 47.67373779 -1.1328125 46.40625 C-1.13376923 45.14864868 -1.13472595 43.89104736 -1.13571167 42.59533691 C-1.13639322 39.93217553 -1.13503992 37.26910542 -1.13037109 34.60595703 C-1.1246739 31.18936749 -1.12795387 27.7728565 -1.13394356 24.35626984 C-1.13842226 21.10209372 -1.13528813 17.84792714 -1.1328125 14.59375 C-1.13483673 13.36354126 -1.13686096 12.13333252 -1.13894653 10.86584473 C-1.13579437 9.73126831 -1.13264221 8.59669189 -1.12939453 7.42773438 C-1.12859894 6.42560913 -1.12780334 5.42348389 -1.12698364 4.39099121 C-1 2 -1 2 0 0 Z M76 14 C73.02470236 21.084042 71.19494978 28.40794835 70 36 C71.03406673 37.25949049 71.03406673 37.25949049 73.28515625 37.09765625 C74.20167969 37.08605469 75.11820312 37.07445312 76.0625 37.0625 C76.98160156 37.05347656 77.90070313 37.04445313 78.84765625 37.03515625 C79.55792969 37.02355469 80.26820313 37.01195312 81 37 C82.04743754 33.85768738 81.97877811 32.94859309 81.29296875 29.83984375 C81.11830078 29.04642578 80.94363281 28.25300781 80.76367188 27.43554688 C80.57353516 26.61119141 80.38339844 25.78683594 80.1875 24.9375 C79.91969727 23.69516602 79.91969727 23.69516602 79.64648438 22.42773438 C78.73633532 17.75021197 78.73633532 17.75021197 76 14 Z " fill="#0BC89F" transform="translate(272,110)"/>
<path d="M0 0 C0.92425781 -0.00257812 1.84851563 -0.00515625 2.80078125 -0.0078125 C5.8302964 0.13156979 8.70257119 0.60446605 11.6875 1.125 C11.71062821 8.80036627 11.72841753 16.47572896 11.73931217 24.15112209 C11.74453995 27.71477422 11.75163569 31.27840257 11.76293945 34.84204102 C11.77584176 38.93506097 11.78072906 43.0280558 11.78515625 47.12109375 C11.79031754 48.40648544 11.79547882 49.69187714 11.80079651 51.01622009 C11.80087204 52.19736893 11.80094757 53.37851776 11.80102539 54.59545898 C11.803246 55.64136703 11.80546661 56.68727509 11.80775452 57.76487732 C11.6875 60.125 11.6875 60.125 10.6875 61.125 C6.40393929 61.46185178 2.10760215 61.4500041 -2.1875 61.5 C-4.00314453 61.55607422 -4.00314453 61.55607422 -5.85546875 61.61328125 C-7.01433594 61.62488281 -8.17320312 61.63648438 -9.3671875 61.6484375 C-10.96796143 61.6781665 -10.96796143 61.6781665 -12.60107422 61.70849609 C-15.3125 61.125 -15.3125 61.125 -17.05639648 58.90991211 C-18.23149836 56.30458906 -19.35372834 53.71975051 -20.35546875 51.04296875 C-20.67281982 50.2027417 -20.9901709 49.36251465 -21.31713867 48.49682617 C-21.70748291 47.44599854 -22.09782715 46.3951709 -22.5 45.3125 C-23.758125 41.950625 -25.01625 38.58875 -26.3125 35.125 C-26.6425 43.705 -26.9725 52.285 -27.3125 61.125 C-34.2425 61.125 -41.1725 61.125 -48.3125 61.125 C-49.47495415 58.8000917 -49.44156177 57.46407243 -49.4453125 54.875 C-49.44724609 53.97201172 -49.44917969 53.06902344 -49.45117188 52.13867188 C-49.44666016 51.14416016 -49.44214844 50.14964844 -49.4375 49.125 C-49.43556641 48.09439453 -49.43363281 47.06378906 -49.43164062 46.00195312 C-49.35302007 31.03783991 -48.80863354 16.07988242 -48.3125 1.125 C-39.0725 1.125 -29.8325 1.125 -20.3125 1.125 C-15.8125 10.125 -15.8125 10.125 -14.390625 14.0625 C-14.11637695 14.81402344 -13.84212891 15.56554688 -13.55957031 16.33984375 C-13.23053711 17.25894531 -12.90150391 18.17804687 -12.5625 19.125 C-11.49 22.095 -10.4175 25.065 -9.3125 28.125 C-8.9825 19.215 -8.6525 10.305 -8.3125 1.125 C-5.27364499 0.11204833 -3.17817275 -0.00879163 0 0 Z " fill="#0B9E95" transform="translate(309.3125,28.875)"/>
<path d="M0 0 C3.89797037 3.05581627 5.98056029 5.67844979 6.8984375 10.67578125 C6.8984375 12.98578125 6.8984375 15.29578125 6.8984375 17.67578125 C-0.3615625 17.67578125 -7.6215625 17.67578125 -15.1015625 17.67578125 C-15.7615625 16.02578125 -16.4215625 14.37578125 -17.1015625 12.67578125 C-20.50771196 12.69704587 -20.50771196 12.69704587 -24.1015625 13.67578125 C-27.14576188 18.224665 -27.56619923 22.40489602 -27.4765625 27.73828125 C-27.48816406 28.43244141 -27.49976563 29.12660156 -27.51171875 29.84179688 C-27.48663138 34.24463007 -27.07336444 37.34280082 -24.1015625 40.67578125 C-21.38500878 41.49268825 -21.38500878 41.49268825 -18.4140625 41.48828125 C-17.42019531 41.53597656 -16.42632812 41.58367187 -15.40234375 41.6328125 C-14.64308594 41.64699219 -13.88382813 41.66117188 -13.1015625 41.67578125 C-13.1015625 40.02578125 -13.1015625 38.37578125 -13.1015625 36.67578125 C-14.803125 36.70671875 -14.803125 36.70671875 -16.5390625 36.73828125 C-20.1015625 36.67578125 -20.1015625 36.67578125 -21.1015625 35.67578125 C-21.2004919 33.51097328 -21.2312735 31.3428434 -21.2265625 29.17578125 C-21.22914063 27.98984375 -21.23171875 26.80390625 -21.234375 25.58203125 C-21.1015625 22.67578125 -21.1015625 22.67578125 -20.1015625 21.67578125 C-16.00376865 21.42193561 -11.89378299 21.4905503 -7.7890625 21.48828125 C-6.0575293 21.46991211 -6.0575293 21.46991211 -4.29101562 21.45117188 C-2.62522461 21.44827148 -2.62522461 21.44827148 -0.92578125 21.4453125 C0.09427002 21.44120361 1.11432129 21.43709473 2.1652832 21.43286133 C4.91639564 21.67737735 6.55352128 22.26309258 8.8984375 23.67578125 C9.04653443 34.05902139 8.60045571 44.32101271 7.8984375 54.67578125 C-4.23116002 60.3692658 -22.72333254 61.34301441 -35.5390625 57.11328125 C-42.84229425 53.73435098 -48.08006307 48.90249075 -51.41015625 41.5703125 C-54.48591364 33.14238971 -54.60125592 21.53070148 -51.5390625 13.05078125 C-47.86887236 5.47859949 -41.90972102 0.59102242 -34.1015625 -2.32421875 C-23.35917983 -5.90501297 -9.81138185 -6.18226477 0 0 Z " fill="#0F888C" transform="translate(182.1015625,32.32421875)"/>
<path d="M0 0 C19.24619402 -0.71511925 19.24619402 -0.71511925 26.30615234 4.10742188 C30.00885829 7.72196816 30.56215949 10.6687856 30.74365234 15.66992188 C30.57697664 19.90003628 30.23919661 22.86012287 27.30615234 26.10742188 C25.11865234 27.41992188 25.11865234 27.41992188 23.30615234 28.10742188 C23.30615234 28.76742187 23.30615234 29.42742187 23.30615234 30.10742188 C24.41990234 30.41679687 24.41990234 30.41679687 25.55615234 30.73242188 C29.33245755 32.62057448 30.47095195 34.30108032 32.30615234 38.10742188 C33.11288294 43.12707894 32.90407498 46.9115766 30.61865234 51.48242188 C25.18860645 57.64625776 19.57897323 60.62173802 11.29718018 61.26296997 C5.75885845 61.47873766 0.22137799 61.38130115 -5.31884766 61.29492188 C-7.00763779 61.27984629 -8.69644096 61.26616297 -10.38525391 61.25390625 C-14.48844495 61.22113152 -18.59099975 61.16950905 -22.69384766 61.10742188 C-25.30345632 55.17390739 -24.96488456 49.31560191 -24.92431641 42.96289062 C-24.92385818 41.7973616 -24.92339996 40.63183258 -24.92292786 39.4309845 C-24.91991396 36.97587054 -24.91205355 34.52075835 -24.8996582 32.06567383 C-24.88132915 28.29111025 -24.87914912 24.51679107 -24.87939453 20.7421875 C-24.87448186 18.35741974 -24.86865464 15.97265364 -24.86181641 13.58789062 C-24.86070358 12.45256393 -24.85959076 11.31723724 -24.85844421 10.14750671 C-24.85206436 9.10584854 -24.84568451 8.06419037 -24.83911133 6.9909668 C-24.83529953 6.06974533 -24.83148773 5.14852386 -24.82756042 4.1993866 C-24.69384766 2.10742188 -24.69384766 2.10742188 -23.69384766 1.10742188 C-22.35783322 0.94974742 -21.01410797 0.85637617 -19.67041016 0.79101562 C-18.82325439 0.74871826 -17.97609863 0.7064209 -17.10327148 0.6628418 C-11.40279261 0.42142739 -5.70095595 0.22733556 0 0 Z M-1.69384766 14.10742188 C-1.36384766 18.06742188 -1.03384766 22.02742188 -0.69384766 26.10742188 C0.60552734 25.79804688 1.90490234 25.48867187 3.24365234 25.16992188 C3.97455078 24.99589844 4.70544922 24.821875 5.45849609 24.64257812 C7.30585132 24.26854619 7.30585132 24.26854619 8.30615234 23.10742188 C8.8064644 19.69170335 8.8064644 19.69170335 8.30615234 16.10742188 C5.0370566 13.36844977 2.34072022 12.09013794 -1.69384766 14.10742188 Z M0.30615234 35.10742188 C-1.02097376 39.08880017 -0.76300679 42.95787414 -0.69384766 47.10742188 C3.96566271 47.49240268 3.96566271 47.49240268 8.24365234 45.98242188 C9.82840635 43.18579716 9.76562657 41.25810228 9.30615234 38.10742188 C7.08554724 35.64008288 5.87046031 35.14589742 2.55615234 34.91992188 C1.81365234 34.98179687 1.07115234 35.04367188 0.30615234 35.10742188 Z " fill="#0CD49F" transform="translate(408.69384765625,109.892578125)"/>
<path d="M0 0 C7.095 -0.0825 14.19 -0.165 21.5 -0.25 C23.72427734 -0.28641602 25.94855469 -0.32283203 28.24023438 -0.36035156 C30.0247298 -0.37204592 31.80923598 -0.38223597 33.59375 -0.390625 C34.50286133 -0.41108887 35.41197266 -0.43155273 36.34863281 -0.45263672 C42.39323459 -0.45591115 46.96182551 0.53847822 52 4 C55.22170311 7.74133264 56.14884821 12.1159182 56 17 C54.39644883 22.25608438 52.07949563 25.36153092 48 29 C48.40992188 29.38929687 48.81984375 29.77859375 49.2421875 30.1796875 C56.74452865 37.9691996 56.79586383 48.58905526 57 59 C56 60 56 60 53.86694336 60.11352539 C52.49227905 60.10567017 52.49227905 60.10567017 51.08984375 60.09765625 C50.10048828 60.09443359 49.11113281 60.09121094 48.09179688 60.08789062 C47.05087891 60.07951172 46.00996094 60.07113281 44.9375 60.0625 C43.89271484 60.05798828 42.84792969 60.05347656 41.77148438 60.04882812 C39.1809334 60.03699913 36.59049441 60.02051689 34 60 C31.9889802 56.26422655 31.42212107 52.97064824 30.875 48.75 C30.70742187 47.48671875 30.53984375 46.2234375 30.3671875 44.921875 C30.24601562 43.95765625 30.12484375 42.9934375 30 42 C28.35 41.34 26.7 40.68 25 40 C25.02320312 41.27617188 25.04640625 42.55234375 25.0703125 43.8671875 C25.08906829 45.5364525 25.10726869 47.2057238 25.125 48.875 C25.14175781 49.71675781 25.15851563 50.55851562 25.17578125 51.42578125 C25.18222656 52.23144531 25.18867187 53.03710938 25.1953125 53.8671875 C25.20578613 54.61081543 25.21625977 55.35444336 25.22705078 56.12060547 C25 58 25 58 23 60 C15.41 60 7.82 60 0 60 C0 40.2 0 20.4 0 0 Z M24 14 C23.85524067 17.8361222 23.82338492 21.32307787 25 25 C30.01535052 24.67039784 30.01535052 24.67039784 34 22 C34.41666667 18.5 34.41666667 18.5 34 15 C31.23737286 13.15824858 26.84907682 11.15092318 24 14 Z " fill="#107B86" transform="translate(70,30)"/>
<path d="M0 0 C1.02914772 -0.00287018 1.02914772 -0.00287018 2.0790863 -0.00579834 C3.53588221 -0.00716098 4.99269023 -0.00345902 6.44946289 0.00488281 C8.65084173 0.01546752 10.85138295 0.00505077 13.05273438 -0.0078125 C23.8132127 -0.01860037 33.91896269 0.27366585 42.68359375 7.328125 C48.58353187 14.43830684 51.54845995 22.38513939 51.39453125 31.60546875 C50.5469581 39.85114466 48.05183235 47.62228946 42.1875 53.61328125 C34.82850636 59.49769394 27.51784239 61.42912915 18.29296875 61.36328125 C17.54396301 61.3618663 16.79495728 61.36045135 16.02325439 61.35899353 C13.63915963 61.35341159 11.25515997 61.34086245 8.87109375 61.328125 C7.25130344 61.32310766 5.63151166 61.31854516 4.01171875 61.31445312 C0.04814063 61.30344808 -3.9153667 61.28619591 -7.87890625 61.265625 C-9.18002757 58.66338236 -9.01308583 56.75190774 -9.02416992 53.83789062 C-9.03054977 52.70331421 -9.03692963 51.56873779 -9.04350281 50.39978027 C-9.04461563 49.16957153 -9.04572845 47.93936279 -9.046875 46.671875 C-9.0502034 45.41427368 -9.0535318 44.15667236 -9.05696106 42.86096191 C-9.06203137 40.19779936 -9.064801 37.53473883 -9.06420898 34.87158203 C-9.06410725 31.45493414 -9.07777156 28.03849354 -9.09498119 24.62189484 C-9.1087543 21.36772917 -9.1081893 18.11356589 -9.109375 14.859375 C-9.11656052 13.62916626 -9.12374603 12.39895752 -9.13114929 11.13146973 C-9.12807266 9.99689331 -9.12499603 8.86231689 -9.12182617 7.69335938 C-9.12325119 6.69123413 -9.12467621 5.68910889 -9.12614441 4.65661621 C-8.55716933 -0.845829 -4.55071397 0.00806507 0 0 Z M15.12109375 13.265625 C12.85368805 15.10704856 12.85368805 15.10704856 12.87817383 17.8918457 C12.88228271 18.98070068 12.8863916 20.06955566 12.890625 21.19140625 C12.89255859 22.38056641 12.89449219 23.56972656 12.89648438 24.79492188 C12.90873047 26.04337891 12.92097656 27.29183594 12.93359375 28.578125 C12.93423828 29.81498047 12.93488281 31.05183594 12.93554688 32.32617188 C12.95862358 39.85277437 12.95862358 39.85277437 14.12109375 47.265625 C18.71585393 47.12736174 18.71585393 47.12736174 22.6640625 45.00390625 C27.02248821 39.92972735 27.28715092 35.896194 27.37109375 29.390625 C27.396875 28.19695312 27.42265625 27.00328125 27.44921875 25.7734375 C27.08682787 21.89930644 26.1721648 19.55308934 24.12109375 16.265625 C20.90481538 14.12143942 18.9301927 13.58980363 15.12109375 13.265625 Z " fill="#0AAE9B" transform="translate(139.87890625,109.734375)"/>
<path d="M0 0 C6.72289454 4.850537 10.39860729 11.94813761 12 20 C12.92596405 30.79279412 11.75937747 41.83851434 4.8125 50.5625 C-1.73940296 57.25560777 -10.12835618 59.13918479 -19.1875 59.25 C-29.31681638 59.21101298 -35.60989538 57.29613736 -43.05078125 50.2578125 C-45.99101345 46.85209264 -47.65314109 43.26505322 -49 39 C-49.18949219 38.42121094 -49.37898437 37.84242187 -49.57421875 37.24609375 C-51.32951924 27.98648107 -51.3941161 16.99003447 -46 9 C-45.5875 8.36835937 -45.175 7.73671875 -44.75 7.0859375 C-34.83634223 -6.15104873 -13.74357736 -7.65293105 0 0 Z M-25 16 C-26.38047021 20.14141064 -26.22394602 24.03701223 -26.25 28.375 C-26.270625 29.22578125 -26.29125 30.0765625 -26.3125 30.953125 C-26.34216976 35.71512084 -26.30814941 39.25177566 -23 43 C-19.5 43.66666667 -19.5 43.66666667 -16 43 C-12.00209572 39.91373185 -11.68945693 35.75647818 -11 31 C-10.44025608 24.89993364 -10.87511607 18.23791837 -14.3125 13 C-18.9525534 10.25033873 -21.90812197 12.13515247 -25 16 Z " fill="#0D9290" transform="translate(244,32)"/>
<path d="M0 0 C7.86780703 5.33580368 11.32956191 12.00829052 13.8359375 20.89453125 C15.22426428 32.27881084 13.27399949 43.04320523 6.24609375 52.32421875 C-0.05233954 58.72821237 -8.21416504 60.56470095 -16.9140625 60.76953125 C-25.37944496 60.67366055 -33.48310529 59.12834147 -39.8515625 53.20703125 C-48.28535712 43.64187393 -48.64892276 32.88109849 -48.06933594 20.70019531 C-47.40833054 13.89154328 -43.9444857 9.21700546 -39.1640625 4.58203125 C-28.50269594 -3.76937255 -12.46844179 -6.02144885 0 0 Z M-21.47265625 14.64453125 C-25.22663102 19.57893435 -25.40164145 28.51617862 -24.8515625 34.45703125 C-23.63730802 39.86293897 -23.63730802 39.86293897 -20.8515625 44.45703125 C-17.97791459 44.87449733 -17.97791459 44.87449733 -14.8515625 44.45703125 C-12.54880694 42.58993215 -11.17332379 41.10055384 -9.8515625 38.45703125 C-9.58771165 35.35918246 -9.62004783 32.25237802 -9.6015625 29.14453125 C-9.5809375 28.28923828 -9.5603125 27.43394531 -9.5390625 26.55273438 C-9.50880964 21.67067934 -9.70189201 18.44184164 -12.8515625 14.45703125 C-13.95684692 13.13734947 -13.95684692 13.13734947 -16.7265625 13.20703125 C-19.76390714 13.17497355 -19.76390714 13.17497355 -21.47265625 14.64453125 Z " fill="#0AA397" transform="translate(111.8515625,111.54296875)"/>
<path d="M0 0 C1.25159912 0.00523682 2.50319824 0.01047363 3.79272461 0.01586914 C4.78942421 0.01799156 4.78942421 0.01799156 5.80625916 0.02015686 C7.93590735 0.02577021 10.06545175 0.03832485 12.19506836 0.05102539 C13.63582205 0.05603868 15.07657739 0.06060188 16.51733398 0.06469727 C20.05577938 0.07574394 23.59416375 0.09301747 27.13256836 0.11352539 C30.05869623 7.13825886 32.5599058 14.22628369 34.83959961 21.48461914 C35.16925217 22.5287648 35.49890472 23.57291046 35.83854675 24.6486969 C36.52712 26.83544848 37.21356211 29.02287217 37.89794922 31.2109375 C38.95064814 34.5688237 40.01697052 37.92219609 41.08374023 41.27563477 C41.75319591 43.40753392 42.42184499 45.53968657 43.08959961 47.67211914 C43.41031937 48.67520615 43.73103912 49.67829315 44.06147766 50.71177673 C44.3489537 51.64026932 44.63642975 52.5687619 44.93261719 53.52539062 C45.18924637 54.34128159 45.44587555 55.15717255 45.71028137 55.99778748 C46.13256836 58.11352539 46.13256836 58.11352539 45.13256836 61.11352539 C37.54256836 61.11352539 29.95256836 61.11352539 22.13256836 61.11352539 C21.14256836 58.14352539 20.15256836 55.17352539 19.13256836 52.11352539 C14.18256836 52.11352539 9.23256836 52.11352539 4.13256836 52.11352539 C3.66850586 54.06258789 3.66850586 54.06258789 3.19506836 56.05102539 C2.25756836 59.98852539 2.25756836 59.98852539 1.13256836 61.11352539 C-0.57515522 61.20066371 -2.28641813 61.22052546 -3.99633789 61.21118164 C-5.54804688 61.20634766 -5.54804688 61.20634766 -7.13110352 61.20141602 C-8.2197168 61.19303711 -9.30833008 61.1846582 -10.42993164 61.17602539 C-12.06865234 61.16925781 -12.06865234 61.16925781 -13.74047852 61.16235352 C-16.44951659 61.15052366 -19.15844763 61.13404082 -21.86743164 61.11352539 C-21.21119466 54.01991617 -18.94738553 47.44213599 -16.80493164 40.67602539 C-16.40240623 39.39385585 -16.00006467 38.11162857 -15.59790039 36.8293457 C-12.92011617 28.31942807 -10.17225929 19.83243327 -7.36743164 11.36352539 C-7.0296167 10.34073486 -6.69180176 9.31794434 -6.34375 8.26416016 C-6.03187744 7.33273193 -5.72000488 6.40130371 -5.39868164 5.44165039 C-4.98972656 4.21816895 -4.98972656 4.21816895 -4.57250977 2.9699707 C-3.45157493 0.01858965 -3.32939847 0.13181527 0 0 Z M11.13256836 15.11352539 C6.9402292 25.77584532 6.9402292 25.77584532 6.13256836 37.11352539 C6.46256836 37.44352539 6.79256836 37.77352539 7.13256836 38.11352539 C8.82398491 38.02389477 10.51216438 37.86774863 12.19506836 37.67602539 C13.5737207 37.52327148 13.5737207 37.52327148 14.98022461 37.36743164 C16.04563477 37.24174805 16.04563477 37.24174805 17.13256836 37.11352539 C15.4779058 26.54332931 15.4779058 26.54332931 13.13256836 16.11352539 C12.47256836 15.78352539 11.81256836 15.45352539 11.13256836 15.11352539 Z " fill="#147384" transform="translate(21.867431640625,28.886474609375)"/>
<path d="M0 0 C4.03068298 3.4682621 6.93332492 7.04997477 8.625 12.125 C8.645625 12.846875 8.66625 13.56875 8.6875 14.3125 C6.6875 16.3125 6.6875 16.3125 4.53271484 16.53955078 C3.66340332 16.52907715 2.7940918 16.51860352 1.8984375 16.5078125 C0.95742188 16.50136719 0.01640625 16.49492187 -0.953125 16.48828125 C-1.93796875 16.47152344 -2.9228125 16.45476562 -3.9375 16.4375 C-4.93007813 16.42847656 -5.92265625 16.41945312 -6.9453125 16.41015625 C-9.40128134 16.38654116 -11.85677168 16.35360799 -14.3125 16.3125 C-14.6425 15.3225 -14.9725 14.3325 -15.3125 13.3125 C-17.6225 13.3125 -19.9325 13.3125 -22.3125 13.3125 C-21.9825 14.3025 -21.6525 15.2925 -21.3125 16.3125 C-19.40644674 17.22302617 -19.40644674 17.22302617 -17.05078125 17.77734375 C-16.17873047 18.02033203 -15.30667969 18.26332031 -14.40820312 18.51367188 C-13.48974609 18.75666016 -12.57128906 18.99964844 -11.625 19.25 C-2.90231463 21.56979661 3.25406383 23.66544168 8.6875 31.3125 C10.92402675 35.7855535 10.30531453 41.86211399 9.109375 46.60546875 C6.6244613 52.44501594 2.27218656 55.55642092 -3.3125 58.3125 C-13.47925599 62.2578083 -26.39626491 61.58579468 -36.3125 57.3125 C-40.66906394 54.93619239 -43.33010569 52.90330788 -45.3125 48.3125 C-45.7532841 45.65429214 -46.01445902 42.99213446 -46.3125 40.3125 C-42.54192453 40.19652347 -38.77180607 40.12532604 -35 40.0625 C-33.92814453 40.02898437 -32.85628906 39.99546875 -31.75195312 39.9609375 C-30.72392578 39.94804687 -29.69589844 39.93515625 -28.63671875 39.921875 C-27.68885498 39.90092773 -26.74099121 39.87998047 -25.7644043 39.85839844 C-23.3125 40.3125 -23.3125 40.3125 -21.47973633 42.33691406 C-21.09454834 42.98885742 -20.70936035 43.64080078 -20.3125 44.3125 C-17.3425 43.8175 -17.3425 43.8175 -14.3125 43.3125 C-14.47719323 41.33753288 -14.47719323 41.33753288 -15.3125 39.3125 C-17.21789177 38.30389707 -17.21789177 38.30389707 -19.625 37.8125 C-20.52476562 37.57144531 -21.42453125 37.33039063 -22.3515625 37.08203125 C-23.81722656 36.70111328 -23.81722656 36.70111328 -25.3125 36.3125 C-40.05148241 32.18931631 -40.05148241 32.18931631 -44.3125 26.3125 C-46.49229202 21.39656738 -46.8837289 16.42844765 -45.25390625 11.29296875 C-42.41278279 5.31599949 -38.33642035 1.41789357 -32.25 -1.125 C-21.74314589 -4.72236936 -10.08019812 -5.13519527 0 0 Z " fill="#0CDD9F" transform="translate(490.3125,111.6875)"/>
<path d="M0 0 C4.19282776 3.28058071 6.43256134 6.51502905 7.9296875 11.7109375 C8.14199644 14.73151467 8.11464491 17.68996649 7.9296875 20.7109375 C0.41720466 21.65544695 -6.55782966 21.65544695 -14.0703125 20.7109375 C-15.0603125 18.4009375 -16.0503125 16.0909375 -17.0703125 13.7109375 C-18.7203125 13.7109375 -20.3703125 13.7109375 -22.0703125 13.7109375 C-23.27223624 18.42324167 -23.2185559 23.00905795 -23.1953125 27.8359375 C-23.19917969 28.64675781 -23.20304687 29.45757812 -23.20703125 30.29296875 C-23.20509766 31.46279297 -23.20509766 31.46279297 -23.203125 32.65625 C-23.20199707 33.36281738 -23.20086914 34.06938477 -23.19970703 34.79736328 C-23.13583973 36.93352939 -23.13583973 36.93352939 -22.0703125 39.7109375 C-20.4203125 39.7109375 -18.7703125 39.7109375 -17.0703125 39.7109375 C-16.4103125 37.7309375 -15.7503125 35.7509375 -15.0703125 33.7109375 C-7.1503125 33.7109375 0.7696875 33.7109375 8.9296875 33.7109375 C7.86557265 42.22385631 6.97462873 47.61685361 0.1796875 53.0234375 C-9.4518235 59.47373775 -19.7788248 60.34312012 -31.046875 58.125 C-37.7452198 55.86456785 -42.18734857 51.5353834 -46.0703125 45.7109375 C-47.46641049 42.76361953 -48.36407259 39.88901708 -49.0703125 36.7109375 C-49.2971875 35.7828125 -49.5240625 34.8546875 -49.7578125 33.8984375 C-50.7444703 23.83452796 -50.86892447 14.44862712 -44.6328125 6.0234375 C-33.92315745 -5.52038666 -13.36332519 -8.32056097 0 0 Z " fill="#0C9892" transform="translate(53.0703125,113.2890625)"/>
<path d="M0 0 C15.18 0 30.36 0 46 0 C46 4.95 46 9.9 46 15 C45 16 45 16 42.95874023 16.11352539 C42.08419189 16.10828857 41.20964355 16.10305176 40.30859375 16.09765625 C39.36435547 16.09443359 38.42011719 16.09121094 37.44726562 16.08789062 C36.45404297 16.07951172 35.46082031 16.07113281 34.4375 16.0625 C33.44041016 16.05798828 32.44332031 16.05347656 31.41601562 16.04882812 C28.94395151 16.03700007 26.47200482 16.02051849 24 16 C23.67 17.98 23.34 19.96 23 22 C23.60062256 21.99476318 24.20124512 21.98952637 24.82006836 21.98413086 C27.52586838 21.96341986 30.23165177 21.95035875 32.9375 21.9375 C33.88302734 21.92912109 34.82855469 21.92074219 35.80273438 21.91210938 C37.15141602 21.90727539 37.15141602 21.90727539 38.52734375 21.90234375 C39.77632446 21.89448853 39.77632446 21.89448853 41.05053711 21.88647461 C43 22 43 22 44 23 C44.0989294 25.16480797 44.129711 27.33293785 44.125 29.5 C44.12886719 31.27890625 44.12886719 31.27890625 44.1328125 33.09375 C44 36 44 36 43 37 C41.58429877 37.08651611 40.164405 37.10704904 38.74609375 37.09765625 C37.89208984 37.09443359 37.03808594 37.09121094 36.15820312 37.08789062 C35.26037109 37.07951172 34.36253906 37.07113281 33.4375 37.0625 C32.53580078 37.05798828 31.63410156 37.05347656 30.70507812 37.04882812 C28.46998686 37.03700225 26.23502563 37.0205222 24 37 C24 38.65 24 40.3 24 42 C31.26 42 38.52 42 46 42 C46.185625 44.619375 46.37125 47.23875 46.5625 49.9375 C46.62381104 50.7637085 46.68512207 51.58991699 46.74829102 52.44116211 C46.87155111 54.29190666 46.937603 56.14620522 47 58 C44.90027289 60.09972711 40.46065996 59.42766967 37.5625 59.5625 C36.69463867 59.6049585 35.82677734 59.64741699 34.93261719 59.69116211 C23.29465372 60.19764791 11.6459145 60.08930916 0 60 C-1.25288603 57.49422795 -1.12938688 55.79264207 -1.1328125 52.98828125 C-1.13474609 51.93423096 -1.13667969 50.88018066 -1.13867188 49.79418945 C-1.13416016 48.64523193 -1.12964844 47.49627441 -1.125 46.3125 C-1.12306641 45.13324951 -1.12113281 43.95399902 -1.11914062 42.73901367 C-1.05211299 28.48167663 -0.515773 14.24822923 0 0 Z " fill="#09B79D" transform="translate(196,111)"/>
<path d="M0 0 C4.45555292 0.35774513 6.49242414 1.97959428 9.609375 5.078125 C10.44597656 5.90957031 11.28257812 6.74101563 12.14453125 7.59765625 C13.43423828 8.91056641 13.43423828 8.91056641 14.75 10.25 C15.62527344 11.10980469 16.50054687 11.96960938 17.40234375 12.85546875 C18.23378906 13.69207031 19.06523437 14.52867188 19.921875 15.390625 C20.68081055 16.15407227 21.43974609 16.91751953 22.22167969 17.70410156 C24.19194706 20.24781304 24.83820289 21.79812043 25 25 C23.43935807 27.19101886 22.00873212 28.87754954 20.125 30.75 C19.62339355 31.26860596 19.12178711 31.78721191 18.60498047 32.3215332 C17.57637218 33.38091182 16.5413371 34.43408783 15.5 35.48095703 C14.12043434 36.87803671 12.77703438 38.31058663 11.4375 39.74609375 C4.8308794 46.72098881 4.8308794 46.72098881 0 47 C-0.66 46.34 -1.32 45.68 -2 45 C-1.73624522 40.82667032 -0.35196117 38.86843483 2.59765625 36.01171875 C3.31630859 35.30595703 4.03496094 34.60019531 4.77539062 33.87304688 C5.53013672 33.15181641 6.28488281 32.43058594 7.0625 31.6875 C7.82111328 30.94693359 8.57972656 30.20636719 9.36132812 29.44335938 C11.23219159 27.61956166 13.11174492 25.80575696 15 24 C10.81334159 18.94193138 6.43423117 14.38163926 1.52929688 10.0078125 C0.09765625 8.6484375 0.09765625 8.6484375 -2 6 C-1.8173785 1.8173785 -1.8173785 1.8173785 0 0 Z " fill="#606060" transform="translate(420,37)"/>
<path d="M0 0 C0.72018311 0.25410645 1.44036621 0.50821289 2.18237305 0.77001953 C2.8581543 2.54345703 2.8581543 2.54345703 3.18237305 4.77001953 C2.1003418 6.55908203 2.1003418 6.55908203 0.36987305 8.39501953 C-0.26692383 9.07822266 -0.9037207 9.76142578 -1.55981445 10.46533203 C-5.61209742 14.60174544 -9.68575598 18.71297117 -13.81762695 22.77001953 C-9.48046389 28.02026956 -4.83197739 32.74892457 0.1081543 37.43798828 C2.10285782 39.68062106 2.99008334 40.80234833 3.18237305 43.77001953 C1.74487305 45.52001953 1.74487305 45.52001953 0.18237305 46.77001953 C-6.16958335 44.64568277 -9.99317609 40.10830171 -14.63012695 35.45751953 C-15.5137793 34.60222656 -16.39743164 33.74693359 -17.30786133 32.86572266 C-18.1425293 32.03363281 -18.97719727 31.20154297 -19.8371582 30.34423828 C-20.60133057 29.58715576 -21.36550293 28.83007324 -22.15283203 28.05004883 C-23.81762695 25.77001953 -23.81762695 25.77001953 -24.3425293 23.30395508 C-23.2835402 18.19174678 -18.72773189 14.91071552 -15.12011719 11.36572266 C-13.63280396 9.89766188 -12.17718439 8.40259372 -10.72192383 6.90283203 C-9.79057617 5.97470703 -8.85922852 5.04658203 -7.8996582 4.09033203 C-7.04605713 3.23713379 -6.19245605 2.38393555 -5.31298828 1.50488281 C-2.81762695 -0.22998047 -2.81762695 -0.22998047 0 0 Z " fill="#5E5E5E" transform="translate(374.817626953125,37.22998046875)"/>
<path d="M0 0 C3.875 0.875 3.875 0.875 5 2 C4.82792204 9.22923404 3.49960014 16.32206713 2.00390625 23.375 C1.81030014 24.30675049 1.61669403 25.23850098 1.41722107 26.19848633 C1.01095589 28.14517493 0.60159017 30.09121891 0.18920898 32.03662109 C-0.44142965 35.01858128 -1.05818724 38.00319281 -1.67382812 40.98828125 C-2.07209329 42.88819362 -2.47115307 44.78793963 -2.87109375 46.6875 C-3.05449814 47.57808105 -3.23790253 48.46866211 -3.42686462 49.38623047 C-3.60367264 50.2113916 -3.78048065 51.03655273 -3.96264648 51.88671875 C-4.11507309 52.61076904 -4.26749969 53.33481934 -4.42454529 54.08081055 C-5 56 -5 56 -7 59 C-8.65 58.67 -10.3 58.34 -12 58 C-12.91353657 54.34893554 -12.98522693 51.6786087 -12.24316406 47.99780273 C-12.05256409 47.03007431 -11.86196411 46.06234589 -11.66558838 45.06529236 C-11.45110046 44.03183182 -11.23661255 42.99837128 -11.015625 41.93359375 C-10.79936462 40.86254898 -10.58310425 39.79150421 -10.36029053 38.68800354 C-9.90091766 36.42684556 -9.43662689 34.16668191 -8.96777344 31.9074707 C-8.25251469 28.44965691 -7.55887062 24.98798783 -6.8671875 21.52539062 C-6.41796351 19.3278595 -5.96748474 17.13058442 -5.515625 14.93359375 C-5.30923401 13.89810898 -5.10284302 12.86262421 -4.89019775 11.79576111 C-4.68698914 10.83118484 -4.48378052 9.86660858 -4.27441406 8.87280273 C-4.10041077 8.02628647 -3.92640747 7.1797702 -3.74713135 6.30760193 C-2.91438852 3.735579 -1.72663662 2.06106071 0 0 Z " fill="#5F5F5F" transform="translate(401,31)"/>
<path d="M0 0 C0.66 0.33 1.32 0.66 2 1 C-1.3 4.3 -4.6 7.6 -8 11 C-8 6.67750434 -5.85084926 5.11604454 -3 2 C-2.01 1.34 -1.02 0.68 0 0 Z " fill="#359D9F" transform="translate(15,114)"/>
</svg>
